<svg width="92" height="18" viewBox="0 0 92 18" fill="none" xmlns="http://www.w3.org/2000/svg">
<path d="M0.976168 5.71479C1.62695 4.53651 2.5344 3.61828 3.69853 2.96009C4.86265 2.3019 6.1824 1.97314 7.65777 1.97314C9.46526 1.97314 11.0127 2.45011 12.3001 3.40472C13.5869 4.35933 14.4478 5.66089 14.8817 7.3094H10.8032C10.4994 6.67344 10.0689 6.18906 9.51242 5.85626C8.95528 5.52346 8.32269 5.35706 7.61398 5.35706C6.47141 5.35706 5.54577 5.75521 4.83705 6.55015C4.12834 7.34578 3.77398 8.40885 3.77398 9.7387C3.77398 11.0686 4.12834 12.1323 4.83705 12.9272C5.54577 13.7229 6.47141 14.1203 7.61398 14.1203C8.32269 14.1203 8.95528 13.9539 9.51242 13.6211C10.0689 13.2883 10.4994 12.804 10.8032 12.168H14.8817C14.4478 13.8165 13.5875 15.1147 12.3001 16.0619C11.0127 17.0091 9.46526 17.4827 7.65777 17.4827C6.1824 17.4827 4.86265 17.1539 3.69853 16.4958C2.5344 15.8376 1.62695 14.9227 0.976168 13.7518C0.325389 12.5803 0 11.243 0 9.7387C0 8.23436 0.325389 6.89373 0.976168 5.71479Z" fill="#0093FF"/>
<path d="M22.4957 5.71479C23.1465 5.33146 23.8694 5.14014 24.665 5.14014V9.06637H23.6457C22.72 9.06637 22.0262 9.26511 21.5633 9.66258C21.1005 10.0607 20.8694 10.758 20.8694 11.7557V17.3742H17.1601V5.27016H20.8694V7.28784C21.3033 6.62292 21.8456 6.09879 22.4964 5.71479H22.4957Z" fill="#0093FF"/>
<path d="M37.789 12.2119H29.3936C29.4515 12.9638 29.6933 13.5391 30.1205 13.9366C30.5469 14.3347 31.071 14.5328 31.6935 14.5328C32.6192 14.5328 33.2625 14.1421 33.6243 13.3613H37.5728C37.37 14.1569 37.0048 14.8723 36.4773 15.509C35.9492 16.1456 35.2876 16.6441 34.4927 17.0059C33.697 17.3677 32.8078 17.5482 31.8242 17.5482C30.6385 17.5482 29.5822 17.2956 28.6572 16.789C27.7316 16.283 27.0087 15.5602 26.488 14.6197C25.9672 13.6799 25.7072 12.5805 25.7072 11.3227C25.7072 10.0649 25.9638 8.96546 26.4772 8.02567C26.9905 7.08588 27.71 6.36302 28.6357 5.85641C29.5613 5.35047 30.6237 5.09717 31.8249 5.09717C33.0261 5.09717 34.0379 5.34306 34.9488 5.83485C35.8596 6.32664 36.5723 7.02795 37.0857 7.93877C37.599 8.84959 37.8557 9.91266 37.8557 11.1273C37.8557 11.4743 37.8341 11.836 37.7904 12.2119H37.789ZM34.0581 10.1511C34.0581 9.51519 33.8412 9.00858 33.4074 8.63266C32.9735 8.25675 32.4312 8.06879 31.7804 8.06879C31.1296 8.06879 30.6338 8.25001 30.2074 8.6111C29.7809 8.97287 29.5168 9.48622 29.4158 10.1511H34.0581Z" fill="#0093FF"/>
<path d="M39.7738 8.02567C40.2434 7.08588 40.8834 6.36302 41.6938 5.8564C42.5036 5.35047 43.4077 5.09716 44.4054 5.09716C45.2004 5.09716 45.9273 5.26356 46.5854 5.59636C47.2436 5.92916 47.7604 6.37716 48.1363 6.94104V1.32251H51.8456V17.3751H48.1363V15.6396C47.7893 16.2183 47.2935 16.6812 46.6501 17.0281C46.0068 17.3751 45.2583 17.5489 44.4047 17.5489C43.407 17.5489 42.5029 17.2922 41.6932 16.7788C40.8827 16.2655 40.2427 15.5352 39.7732 14.588C39.3029 13.6408 39.0685 12.5454 39.0685 11.3018C39.0685 10.0582 39.3036 8.96613 39.7732 8.02634L39.7738 8.02567ZM47.3669 9.13186C46.8536 8.59695 46.2277 8.3295 45.4907 8.3295C44.7537 8.3295 44.1272 8.59358 43.6145 9.12108C43.1012 9.64925 42.8445 10.3762 42.8445 11.3011C42.8445 12.2261 43.1012 12.9604 43.6145 13.5027C44.1278 14.045 44.7537 14.3165 45.4907 14.3165C46.2277 14.3165 46.8536 14.0491 47.3669 13.5142C47.8803 12.9793 48.1369 12.249 48.1369 11.3234C48.1369 10.3977 47.8803 9.66744 47.3669 9.13253V9.13186Z" fill="#0093FF"/>
<path d="M54.808 3.43781C54.3957 3.05448 54.1896 2.58088 54.1896 2.01701C54.1896 1.45314 54.3957 0.957979 54.808 0.574653C55.2203 0.191326 55.7519 0 56.4026 0C57.0534 0 57.5634 0.192 57.9757 0.574653C58.388 0.957979 58.5941 1.43899 58.5941 2.01701C58.5941 2.59503 58.388 3.05516 57.9757 3.43781C57.5634 3.82114 57.0393 4.01246 56.4026 4.01246C55.766 4.01246 55.2203 3.82114 54.808 3.43781ZM58.2465 5.27023V17.375H54.5372V5.27023H58.2465Z" fill="#0093FF"/>
<path d="M67.6839 14.2295V17.3749H65.7962C64.4515 17.3749 63.4026 17.0462 62.6508 16.388C61.8983 15.7298 61.5224 14.6566 61.5224 13.1664V8.35095H60.047V5.27086H61.5224V2.3208H65.2317V5.27086H67.6617V8.35095H65.2317V13.2102C65.2317 13.572 65.3186 13.832 65.4917 13.991C65.6655 14.15 65.9545 14.2295 66.3594 14.2295H67.6825H67.6839Z" fill="#0093FF"/>
<path d="M72.0544 16.7897C71.1072 16.2838 70.3621 15.5609 69.8198 14.6204C69.2775 13.6806 69.006 12.5812 69.006 11.3234C69.006 10.0656 69.2808 8.98438 69.8306 8.03718C70.3803 7.08998 71.1321 6.36375 72.0867 5.85714C73.0413 5.35121 74.1112 5.0979 75.2975 5.0979C76.4839 5.0979 77.5537 5.35121 78.5083 5.85714C79.4629 6.36375 80.2147 7.08998 80.7645 8.03718C81.3142 8.98438 81.5891 10.0798 81.5891 11.3234C81.5891 12.567 81.3101 13.6631 80.7537 14.6096C80.1965 15.5568 79.4373 16.2838 78.476 16.7897C77.5139 17.2963 76.4401 17.5489 75.2544 17.5489C74.0687 17.5489 73.0016 17.2963 72.0544 16.7897ZM77.0659 13.5574C77.5651 13.0366 77.8144 12.2922 77.8144 11.3227C77.8144 10.3533 77.5719 9.60889 77.0875 9.08813C76.6024 8.56737 76.0062 8.30733 75.2975 8.30733C74.5888 8.30733 73.9744 8.56401 73.4968 9.07735C73.0198 9.5907 72.7806 10.3392 72.7806 11.3227C72.7806 12.3063 73.0157 13.0366 73.486 13.5574C73.9555 14.0781 74.545 14.3382 75.2537 14.3382C75.9624 14.3382 76.5661 14.0781 77.0653 13.5574H77.0659Z" fill="#0093FF"/>
<path d="M88.9002 5.71479C89.5509 5.33146 90.2738 5.14014 91.0694 5.14014V9.06637H90.0501C89.1245 9.06637 88.4306 9.26511 87.9678 9.66258C87.505 10.0607 87.2739 10.758 87.2739 11.7557V17.3742H83.5646V5.27016H87.2739V7.28784C87.7077 6.62292 88.2501 6.09879 88.9008 5.71479H88.9002Z" fill="#0093FF"/>
</svg>
