<svg width="134" height="28" viewBox="0 0 134 28" fill="none" xmlns="http://www.w3.org/2000/svg">
<path d="M11.9928 6.24292V0L24.231 6.92278V20.8917L18.6066 17.6158L18.9155 13.0423L10.5088 17.8634L7.66602 16.3182V13.3512L15.9485 8.77687L11.9928 6.24292Z" fill="#0093FF"/>
<path d="M9.20993 7.60271V1.91626L0 7.10834V20.8918L11.9915 28.0001L20.8917 22.4378L15.9472 19.3466L12.0528 21.9426L5.12999 18.1111V10.1374L9.20993 7.60271Z" fill="#0093FF"/>
<path d="M30.976 10.9411C31.6268 9.76283 32.5343 8.8446 33.6984 8.18641C34.8625 7.52822 36.1823 7.19946 37.6576 7.19946C39.4651 7.19946 41.0126 7.67643 42.3 8.63104C43.5867 9.58565 44.4477 10.8872 44.8816 12.5357H40.8031C40.4992 11.8998 40.0688 11.4154 39.5123 11.0826C38.9552 10.7498 38.3226 10.5834 37.6139 10.5834C36.4713 10.5834 35.5456 10.9815 34.8369 11.7765C34.1282 12.5721 33.7739 13.6352 33.7739 14.965C33.7739 16.2949 34.1282 17.3586 34.8369 18.1536C35.5456 18.9492 36.4713 19.3467 37.6139 19.3467C38.3226 19.3467 38.9552 19.1803 39.5123 18.8475C40.0688 18.5147 40.4992 18.0303 40.8031 17.3943H44.8816C44.4477 19.0428 43.5874 20.341 42.3 21.2882C41.0126 22.2354 39.4651 22.709 37.6576 22.709C36.1823 22.709 34.8625 22.3803 33.6984 21.7221C32.5343 21.0639 31.6268 20.149 30.976 18.9782C30.3253 17.8066 29.9999 16.4694 29.9999 14.965C29.9999 13.4607 30.3253 12.1201 30.976 10.9411Z" fill="#0093FF"/>
<path d="M52.4956 10.9411C53.1464 10.5578 53.8692 10.3665 54.6649 10.3665V14.2927H53.6456C52.7199 14.2927 52.026 14.4914 51.5632 14.8889C51.1004 15.287 50.8693 15.9843 50.8693 16.982V22.6006H47.16V10.4965H50.8693V12.5142C51.3032 11.8492 51.8455 11.3251 52.4963 10.9411H52.4956Z" fill="#0093FF"/>
<path d="M67.7889 17.4383H59.3934C59.4514 18.1901 59.6932 18.7654 60.1203 19.1629C60.5468 19.561 61.0709 19.7591 61.6934 19.7591C62.619 19.7591 63.2624 19.3684 63.6242 18.5876H67.5726C67.3699 19.3832 67.0047 20.0986 66.4772 20.7353C65.9491 21.3719 65.2875 21.8704 64.4925 22.2322C63.6969 22.594 62.8077 22.7745 61.8241 22.7745C60.6384 22.7745 59.5821 22.5219 58.6571 22.0153C57.7315 21.5093 57.0086 20.7865 56.4878 19.846C55.9671 18.9062 55.707 17.8068 55.707 16.549C55.707 15.2912 55.9637 14.1918 56.4771 13.252C56.9904 12.3122 57.7099 11.5893 58.6355 11.0827C59.5612 10.5768 60.6236 10.3235 61.8248 10.3235C63.0259 10.3235 64.0378 10.5694 64.9486 11.0612C65.8595 11.553 66.5722 12.2543 67.0856 13.1651C67.5989 14.0759 67.8556 15.139 67.8556 16.3536C67.8556 16.7006 67.834 17.0623 67.7902 17.4383H67.7889ZM64.058 15.3775C64.058 14.7415 63.8411 14.2349 63.4072 13.859C62.9734 13.4831 62.4311 13.2951 61.7803 13.2951C61.1295 13.2951 60.6337 13.4763 60.2072 13.8374C59.7808 14.1992 59.5167 14.7125 59.4157 15.3775H64.058Z" fill="#0093FF"/>
<path d="M69.7737 13.252C70.2433 12.3122 70.8833 11.5893 71.6937 11.0827C72.5035 10.5768 73.4076 10.3235 74.4053 10.3235C75.2002 10.3235 75.9271 10.4899 76.5853 10.8227C77.2435 11.1555 77.7602 11.6035 78.1361 12.1674V6.54883H81.8455V22.6014H78.1361V20.866C77.7892 21.4447 77.2934 21.9075 76.65 22.2544C76.0066 22.6014 75.2582 22.7752 74.4046 22.7752C73.4069 22.7752 72.5028 22.5185 71.693 22.0052C70.8826 21.4918 70.2426 20.7615 69.773 19.8143C69.3028 18.8671 69.0684 17.7717 69.0684 16.5281C69.0684 15.2845 69.3035 14.1924 69.773 13.2527L69.7737 13.252ZM77.3668 14.3582C76.8535 13.8233 76.2276 13.5558 75.4906 13.5558C74.7536 13.5558 74.1271 13.8199 73.6144 14.3474C73.101 14.8756 72.8444 15.6025 72.8444 16.5274C72.8444 17.4524 73.101 18.1867 73.6144 18.729C74.1277 19.2714 74.7536 19.5428 75.4906 19.5428C76.2276 19.5428 76.8535 19.2754 77.3668 18.7405C77.8802 18.2056 78.1368 17.4753 78.1368 16.5497C78.1368 15.624 77.8802 14.8938 77.3668 14.3588V14.3582Z" fill="#0093FF"/>
<path d="M84.8079 8.66413C84.3956 8.2808 84.1895 7.8072 84.1895 7.24333C84.1895 6.67946 84.3956 6.1843 84.8079 5.80097C85.2202 5.41764 85.7517 5.22632 86.4025 5.22632C87.0533 5.22632 87.5633 5.41832 87.9756 5.80097C88.3879 6.1843 88.594 6.66531 88.594 7.24333C88.594 7.82135 88.3879 8.28148 87.9756 8.66413C87.5633 9.04746 87.0391 9.23878 86.4025 9.23878C85.7659 9.23878 85.2202 9.04746 84.8079 8.66413ZM88.2464 10.4966V22.6013H84.5371V10.4966H88.2464Z" fill="#0093FF"/>
<path d="M97.6838 19.4558V22.6013H95.7961C94.4514 22.6013 93.4025 22.2725 92.6507 21.6143C91.8982 20.9561 91.5222 19.883 91.5222 18.3928V13.5773H90.0469V10.4972H91.5222V7.54712H95.2315V10.4972H97.6615V13.5773H95.2315V18.4366C95.2315 18.7983 95.3184 19.0584 95.4916 19.2174C95.6654 19.3763 95.9544 19.4558 96.3593 19.4558H97.6824H97.6838Z" fill="#0093FF"/>
<path d="M102.054 22.016C101.107 21.5101 100.362 20.7872 99.8197 19.8467C99.2774 18.907 99.0059 17.8075 99.0059 16.5497C99.0059 15.292 99.2807 14.2107 99.8304 13.2635C100.38 12.3163 101.132 11.5901 102.087 11.0835C103.041 10.5775 104.111 10.3242 105.297 10.3242C106.484 10.3242 107.554 10.5775 108.508 11.0835C109.463 11.5901 110.215 12.3163 110.764 13.2635C111.314 14.2107 111.589 15.3061 111.589 16.5497C111.589 17.7934 111.31 18.8894 110.754 19.836C110.196 20.7832 109.437 21.5101 108.476 22.016C107.514 22.5226 106.44 22.7753 105.254 22.7753C104.069 22.7753 103.001 22.5226 102.054 22.016ZM107.066 18.7837C107.565 18.2629 107.814 17.5185 107.814 16.5491C107.814 15.5796 107.572 14.8352 107.087 14.3144C106.602 13.7937 106.006 13.5337 105.297 13.5337C104.589 13.5337 103.974 13.7903 103.497 14.3037C103.02 14.817 102.781 15.5655 102.781 16.5491C102.781 17.5326 103.016 18.2629 103.486 18.7837C103.955 19.3044 104.545 19.5645 105.254 19.5645C105.962 19.5645 106.566 19.3044 107.065 18.7837H107.066Z" fill="#0093FF"/>
<path d="M118.9 10.9411C119.551 10.5578 120.274 10.3665 121.069 10.3665V14.2927H120.05C119.124 14.2927 118.43 14.4914 117.968 14.8889C117.505 15.287 117.274 15.9843 117.274 16.982V22.6006H113.564V10.4965H117.274V12.5142C117.708 11.8492 118.25 11.3251 118.901 10.9411H118.9Z" fill="#0093FF"/>
</svg>
